<?xml version="1.0" encoding="iso-8859-1"?>
<!-- Generator: Adobe Illustrator 21.0.2, SVG Export Plug-In . SVG Version: 6.00 Build 0)  -->
<svg version="1.1" xmlns="http://www.w3.org/2000/svg" xmlns:xlink="http://www.w3.org/1999/xlink" x="0px" y="0px"
	 viewBox="0 0 36.728 34.119" style="enable-background:new 0 0 36.728 34.119;" xml:space="preserve">
<g id="Bodega_x5F_and_x5F_Vinedos_x5F_Korta_x5F_Bucarey">
	<path d="M0.004,0.005c4.215-0.007,8.429-0.006,12.644,0.001c-0.011,0.132-0.019,0.266-0.022,0.4c-0.495,0.083-1.098,0.339-1.1,0.93
		c-0.005,7.885-0.01,15.771-0.003,23.656c-0.027,0.597,0.616,0.793,1.085,0.901c0,0.133,0,0.266,0.001,0.402
		C9.242,26.3,5.871,26.306,2.504,26.288c-0.475,0.023-0.951,0.014-1.425-0.018c-0.36-0.011-0.721,0.05-1.079-0.01
		c0.002-0.126,0.005-0.251,0.01-0.375c0.313-0.085,0.654-0.157,0.898-0.387c0.189-0.211,0.193-0.514,0.198-0.78
		C1.109,17.016,1.098,9.313,1.108,1.611C1.101,1.34,1.123,1.028,0.924,0.815c-0.231-0.26-0.585-0.333-0.907-0.409
		C0.012,0.272,0.007,0.137,0.004,0.005z"/>
	<path d="M19.205,0.007c3.779,0.002,7.558-0.018,11.336,0.011c-0.003,0.105-0.005,0.211-0.007,0.318
		c-1.138,0.101-2.205,0.565-3.209,1.084c-2.154,1.208-4.012,2.854-5.885,4.445c-0.253,0.214-0.516,0.419-0.749,0.656
		c-0.09-0.06-0.169-0.135-0.232-0.219c0.621-0.838,1.24-1.709,1.568-2.71c0.275-0.78,0.222-1.75-0.377-2.368
		c-0.585-0.633-1.485-0.799-2.305-0.886C19.17,0.328,19.214,0.126,19.205,0.007z"/>
	<path d="M15.336,13.083c1.33-1.295,2.408-2.818,3.59-4.244c1.35,0.604,2.636,1.384,3.701,2.417c0.73,0.635,1.303,1.419,1.927,2.152
		c0.69,0.962,1.231,2.021,1.721,3.097c1.009,2.166,1.645,4.475,2.381,6.743c0.659,2.182,1.412,4.391,2.789,6.238
		c0.254,0.329,0.506,0.676,0.859,0.907c0.53,0.311,1.012,0.707,1.59,0.933c0.897,0.351,1.866,0.525,2.829,0.494
		c0.001,0.134,0.002,0.268,0.004,0.405c-1.677,0.953-3.601,1.316-5.476,1.656c-0.743,0.113-1.492,0.174-2.241,0.235
		c-1.614,0.032-3.255-0.16-4.766-0.758c-1.289-0.498-2.457-1.3-3.396-2.312c-1.286-1.269-2.089-2.928-2.761-4.581
		c-0.92-2.325-1.418-4.784-2.038-7.198c-0.391-1.376-0.724-2.82-1.592-3.989c-0.324-0.427-0.79-0.72-1.305-0.858
		c0.07-0.09,0.164-0.154,0.274-0.184C14.138,13.99,14.73,13.51,15.336,13.083z"/>
</g>
<g id="Layer_1">
</g>
</svg>
